<?xml version="1.0" encoding="UTF-8"?>
<svg version="1.1" xmlns="http://www.w3.org/2000/svg" width="223" height="226">
<path d="M0 0 C73.59 0 147.18 0 223 0 C223 74.58 223 149.16 223 226 C149.41 226 75.82 226 0 226 C0 151.42 0 76.84 0 0 Z " fill="#151515" transform="translate(0,0)"/>
<path d="M0 0 C38.28 0 76.56 0 116 0 C116 40.92 116 81.84 116 124 C115.67 124 115.34 124 115 124 C114.86464844 123.29617187 114.72929687 122.59234375 114.58984375 121.8671875 C112.56420317 112.57592592 109.16858603 102.66365046 102.73046875 95.4609375 C101 93 101 93 101.046875 90.16015625 C101.27890625 89.13792969 101.5109375 88.11570312 101.75 87.0625 C104.83900042 70.55681704 102.39219386 56.07783178 93 42 C83.35616938 29.39453233 70.78030914 21.31126532 55 19 C52.50352225 18.96993991 50.04713694 19.08683355 47.55517578 19.23217773 C36.5553864 19.84701404 36.5553864 19.84701404 32.1953125 17.47265625 C30.125 15.4375 30.125 15.4375 28.18359375 13.234375 C21.04099205 5.92566629 9.74625938 2.87428065 0 1 C0 0.67 0 0.34 0 0 Z " fill="#FDFDFD" transform="translate(107,0)"/>
<path d="M0 0 C1.64869314 3.29738628 2.73944157 6.19435235 3.8125 9.6875 C5.97438227 16.2776244 8.47724559 22.47724559 13.4375 27.4375 C15.30055169 30.49290477 15.03467076 30.96234542 14.25 34.3125 C14.03472656 35.17746094 13.81945313 36.04242188 13.59765625 36.93359375 C10.66714607 51.96921789 13.97438342 67.07858245 22 80 C31.53722317 92.55464971 44.14406436 101.56183011 60 104 C62.5838316 104.02896845 65.1328745 103.90996958 67.71264648 103.76782227 C79.40896684 103.15476363 79.40896684 103.15476363 83.875 105.52734375 C85.9375 107.5625 85.9375 107.5625 87.828125 109.76171875 C90.57638352 112.59400676 93.67560414 114.18745382 97.1875 115.875 C98.33605469 116.42929688 99.48460938 116.98359375 100.66796875 117.5546875 C106.51401765 120.09048831 111.71047081 121.34935905 118 122 C118 122.33 118 122.66 118 123 C79.06 123 40.12 123 0 123 C0 82.41 0 41.82 0 0 Z " fill="#FDFDFD" transform="translate(0,103)"/>
<path d="M0 0 C0.33 0 0.66 0 1 0 C1 29.7 1 59.4 1 90 C-29.36 90 -59.72 90 -91 90 C-87.70261372 88.35130686 -84.80564765 87.26055843 -81.3125 86.1875 C-67.41637323 81.57230153 -56.21687072 72.9508228 -49 60 C-48.41232126 58.21643352 -47.84895549 56.42463641 -47.3125 54.625 C-46.13419114 51.3922039 -45.57170682 50.29558835 -42.4765625 48.6953125 C-40.41042262 48.05263146 -38.32803816 47.46045752 -36.234375 46.9140625 C-23.54922453 43.32912867 -14.67608286 35.02032817 -8 24 C-3.79288305 16.33622479 -1.67172965 8.54892644 0 0 Z " fill="#FDFDFD" transform="translate(222,136)"/>
<path d="M0 0 C30.36 0 60.72 0 92 0 C92 0.33 92 0.66 92 1 C91.27296875 1.14695313 90.5459375 1.29390625 89.796875 1.4453125 C73.94634222 4.98120058 62.40376087 12.64700589 52.55078125 25.53515625 C50.79034982 28.33322232 49.67776125 31.18869052 48.4375 34.25 C46.62369455 38.10189867 45.63627045 39.66619309 41.828125 41.6640625 C39.39457547 42.47350494 36.94281559 43.23006261 34.4765625 43.93359375 C29.59384921 45.43132491 25.99994581 47.90145043 22 51 C21.41089844 51.40347656 20.82179688 51.80695312 20.21484375 52.22265625 C9.64866555 60.09313523 3.3347727 74.40569728 1 87 C0.67 87 0.34 87 0 87 C0 58.29 0 29.58 0 0 Z " fill="#FDFDFD" transform="translate(0,0)"/>
<path d="M0 0 C0.763125 0.639375 1.52625 1.27875 2.3125 1.9375 C2.3125 2.9275 2.3125 3.9175 2.3125 4.9375 C0.45849609 6.35693359 0.45849609 6.35693359 -2.1640625 7.8359375 C-3.13529053 8.3918457 -4.10651855 8.94775391 -5.10717773 9.52050781 C-6.69381226 10.40754395 -6.69381226 10.40754395 -8.3125 11.3125 C-10.5042288 12.5645397 -12.69562719 13.81715794 -14.88671875 15.0703125 C-16.01126465 15.7087207 -17.13581055 16.34712891 -18.29443359 17.00488281 C-23.59570622 20.02437297 -28.86382108 23.09882589 -34.125 26.1875 C-35.07133301 26.73583496 -36.01766602 27.28416992 -36.99267578 27.84912109 C-38.29374268 28.61216553 -38.29374268 28.61216553 -39.62109375 29.390625 C-40.38478271 29.83567383 -41.14847168 30.28072266 -41.93530273 30.73925781 C-43.83690646 31.83143217 -43.83690646 31.83143217 -44.6875 33.9375 C-44.80808055 36.03036161 -44.86492678 38.12699778 -44.89282227 40.22314453 C-44.90767166 41.1891861 -44.90767166 41.1891861 -44.92282104 42.17474365 C-44.95444499 44.30656235 -44.97919687 46.43840335 -45.00390625 48.5703125 C-45.02447502 50.04719629 -45.04547147 51.52407418 -45.06687927 53.00094604 C-45.12210799 56.89055611 -45.1715137 60.78021937 -45.21972656 64.66992188 C-45.26993577 68.63806907 -45.32562486 72.60613889 -45.38085938 76.57421875 C-45.48845072 84.36191367 -45.58989348 92.14967286 -45.6875 99.9375 C-46.43561447 99.63092468 -47.18372894 99.32434937 -47.95451355 99.00848389 C-50.82423357 97.84310783 -50.82423357 97.84310783 -54.4152832 96.80175781 C-59.03453552 95.06120802 -62.831803 93.07584362 -65.6875 88.9375 C-68.24858397 80.20898899 -67.33973658 70.71874253 -66.95062256 61.72711182 C-66.85039045 59.02375726 -66.82009517 56.32176448 -66.79320812 53.61683273 C-66.75770956 50.34284856 -66.68258143 47.07010794 -66.60546875 43.796875 C-66.57905807 42.60165222 -66.5526474 41.40642944 -66.5254364 40.17498779 C-65.97734523 27.06095291 -62.7308263 15.67880115 -53.6875 5.9375 C-38.29634364 -7.91454072 -17.97734789 -10.77808589 0 0 Z " fill="#FAFAFA" transform="translate(122.6875,21.0625)"/>
<path d="M0 0 C0.74811447 0.30621277 1.49622894 0.61242554 2.26701355 0.92791748 C4.38746744 1.75971873 6.55178018 2.48009756 8.7277832 3.15332031 C13.32598408 4.90429634 17.1343395 6.88958815 20 11 C22.5490341 19.56058643 21.65154344 28.93115064 21.26312256 37.74682617 C21.1381672 41.05678176 21.11902158 44.36774992 21.08398438 47.6796875 C21.03450207 50.23970323 20.97934584 52.79961683 20.91796875 55.359375 C20.89155807 56.532724 20.8651474 57.706073 20.8379364 58.91497803 C20.18929614 74.16491454 15.3835354 86.52544673 4.34375 97.140625 C-6.29916214 105.58400197 -17.7956543 106.98158578 -31 106 C-37.21264105 104.54131421 -43.08629232 102.11689022 -48 98 C-48 97.01 -48 96.02 -48 95 C-45.73659818 93.42381489 -43.52935675 92.08341698 -41.125 90.75 C-40.39063721 90.32960449 -39.65627441 89.90920898 -38.8996582 89.47607422 C-36.27227764 87.97357015 -33.63613179 86.4870945 -31 85 C-26.97526565 82.71635272 -22.95509278 80.42503663 -18.93963623 78.12512207 C-17.2087063 77.13710459 -15.47278458 76.15784906 -13.73681641 75.17871094 C-12.66222168 74.56543945 -11.58762695 73.95216797 -10.48046875 73.3203125 C-9.52035889 72.77648926 -8.56024902 72.23266602 -7.57104492 71.67236328 C-4.89236758 69.92998936 -3.01928492 68.4817845 -1 66 C-0.38425988 62.93956621 -0.38425988 62.93956621 -0.45410156 59.48730469 C-0.44376389 58.84298492 -0.43342621 58.19866516 -0.42277527 57.53482056 C-0.39337107 55.41358289 -0.39184875 53.29330034 -0.390625 51.171875 C-0.37564156 49.69783715 -0.35891405 48.22381607 -0.34051514 46.74981689 C-0.29684696 42.87661972 -0.276844 39.00364899 -0.26177979 35.13024902 C-0.24220655 31.17523816 -0.20023687 27.2204718 -0.16015625 23.265625 C-0.0848601 15.5104824 -0.03456539 7.75544244 0 0 Z " fill="#FAFAFA" transform="translate(146,105)"/>
<path d="M0 0 C1.25103516 0.74781738 1.25103516 0.74781738 2.52734375 1.51074219 C3.47851074 2.07245117 4.42967773 2.63416016 5.40966797 3.21289062 C6.41787598 3.82165039 7.42608398 4.43041016 8.46484375 5.05761719 C10.61311997 6.33913758 12.7615613 7.62038125 14.91015625 8.90136719 C15.99844727 9.55363281 17.08673828 10.20589844 18.20800781 10.87792969 C21.31193195 12.71701637 24.43888013 14.50534793 27.58203125 16.27636719 C41.02508124 23.89473197 52.63104665 30.73697469 58.46484375 45.80761719 C58.82707031 46.72929688 59.18929687 47.65097656 59.5625 48.60058594 C62.69545135 59.73544767 60.95948979 71.76752186 55.46484375 81.80761719 C50.87181375 89.04851371 45.06652576 94.75256006 37.46484375 98.80761719 C35.80446195 99.17096435 34.13799193 99.50851175 32.46484375 99.80761719 C32.45937531 98.76858246 32.45937531 98.76858246 32.45379639 97.70855713 C32.41202079 90.50588298 32.34270943 83.30384899 32.25732422 76.1015625 C32.22686179 73.41274529 32.20619809 70.72411621 32.19384766 68.03515625 C32.17246717 64.17241521 32.12583868 60.31068271 32.07421875 56.44824219 C32.07299011 55.24395569 32.07176147 54.03966919 32.07049561 52.79888916 C32.05077698 51.67802917 32.03105835 50.55716919 32.01074219 49.40234375 C32.00185974 48.41639221 31.99297729 47.43044067 31.98382568 46.41461182 C31.32082564 43.08417304 30.05144201 41.93969392 27.46484375 39.80761719 C25.61126576 38.61515096 23.71548104 37.4869893 21.79296875 36.40917969 C20.66415283 35.77125488 19.53533691 35.13333008 18.37231445 34.47607422 C17.77552887 34.14271057 17.17874329 33.80934692 16.56387329 33.46588135 C14.05917395 32.06621953 11.56326002 30.65121873 9.06660461 29.23727417 C7.13883858 28.14593308 5.20981534 27.0568366 3.28076172 25.96777344 C-2.57406997 22.65775267 -8.40275641 19.30367266 -14.22265625 15.93261719 C-15.24907227 15.34432129 -16.27548828 14.75602539 -17.33300781 14.14990234 C-18.26983398 13.60640137 -19.20666016 13.06290039 -20.171875 12.50292969 C-20.99389404 12.02871582 -21.81591309 11.55450195 -22.6628418 11.06591797 C-24.53515625 9.80761719 -24.53515625 9.80761719 -25.53515625 7.80761719 C-22.84353846 6.09228263 -20.12970025 4.41575811 -17.41015625 2.74511719 C-16.26933594 2.01711914 -16.26933594 2.01711914 -15.10546875 1.27441406 C-14.3578125 0.82001953 -13.61015625 0.365625 -12.83984375 -0.10253906 C-12.15905762 -0.52672119 -11.47827148 -0.95090332 -10.77685547 -1.38793945 C-6.85035388 -2.79698135 -3.67336733 -1.72772785 0 0 Z " fill="#FBFBFB" transform="translate(147.53515625,70.1923828125)"/>
<path d="M0 0 C0.00364563 0.69268982 0.00729126 1.38537964 0.01104736 2.09906006 C0.05282296 9.30173421 0.12213432 16.5037682 0.20751953 23.70605469 C0.23798196 26.3948719 0.25864566 29.08350098 0.27099609 31.77246094 C0.29237658 35.63520197 0.33900507 39.49693448 0.390625 43.359375 C0.39185364 44.5636615 0.39308228 45.767948 0.39434814 47.00872803 C0.42392609 48.69001801 0.42392609 48.69001801 0.45410156 50.40527344 C0.46298401 51.39122498 0.47186646 52.37717651 0.48101807 53.39300537 C1.14210249 56.71382146 2.42657192 57.87090402 5 60 C7.18501123 61.46452791 7.18501123 61.46452791 9.578125 62.7421875 C10.48062988 63.24443848 11.38313477 63.74668945 12.31298828 64.26416016 C13.28220215 64.7957373 14.25141602 65.32731445 15.25 65.875 C17.31595192 67.02451939 19.38102681 68.17561611 21.4453125 69.328125 C22.5168457 69.92560547 23.58837891 70.52308594 24.69238281 71.13867188 C30.20489589 74.24078286 35.66568003 77.43046709 41.125 80.625 C42.13723633 81.21651855 43.14947266 81.80803711 44.19238281 82.41748047 C48.47488291 84.92347688 52.74839988 87.44184185 57 90 C55.50404935 94.48785196 52.24389102 95.52101505 48.25 97.75 C47.17492187 98.38615234 47.17492187 98.38615234 46.078125 99.03515625 C40.83802182 101.99234683 40.83802182 101.99234683 37.43359375 102.0234375 C34.04075496 100.59659358 30.93997 98.79736212 27.8125 96.875 C22.40377115 93.60445015 16.96960697 90.40285715 11.453125 87.31640625 C9.74612427 86.35468506 9.74612427 86.35468506 8.00463867 85.37353516 C5.762655 84.11252867 3.51563281 82.86042559 1.26293945 81.61865234 C-11.07881018 74.63005296 -21.96573207 65.74017295 -26.6953125 51.9765625 C-29.87901794 39.91435458 -28.55892025 28.50813688 -22.71484375 17.6015625 C-18.05498242 9.99521503 -9.60110625 0 0 0 Z " fill="#FAFAFA" transform="translate(43,56)"/>
<path d="M0 0 C0 7.59 0 15.18 0 23 C-3.3 24.85625 -6.6 26.7125 -10 28.625 C-16.5407848 32.30647194 -23.05968118 36.01774142 -29.51953125 39.83984375 C-30.57333984 40.4622998 -31.62714844 41.08475586 -32.71289062 41.72607422 C-34.72951295 42.92086259 -36.74273567 44.12141402 -38.75195312 45.32861328 C-47.98100276 50.79184125 -55.99051085 54.75964416 -66.875 54.5625 C-67.74560059 54.55081787 -68.61620117 54.53913574 -69.51318359 54.52709961 C-82.102989 54.09776876 -90.4406565 49.06373338 -99 40 C-107.71006777 30.52029262 -109.53563389 20.57264561 -109.140625 8.11328125 C-109.09421875 7.08589844 -109.0478125 6.05851563 -109 5 C-105.22704244 6.41024693 -101.83496367 8.14175585 -98.3515625 10.16015625 C-97.27052246 10.785271 -96.18948242 11.41038574 -95.07568359 12.05444336 C-93.93695801 12.71710205 -92.79823242 13.37976074 -91.625 14.0625 C-90.44763995 14.74198456 -89.27006735 15.42110095 -88.09228516 16.09985352 C-83.09165994 18.98882382 -78.10832096 21.89273643 -73.234375 24.9921875 C-72.56583496 25.41363037 -71.89729492 25.83507324 -71.20849609 26.26928711 C-69.51187693 27.3502888 -67.82946937 28.45350864 -66.1484375 29.55859375 C-62.24198647 31.34703101 -59.1670795 31.88793757 -55 31 C-51.29882922 29.45001731 -47.93062918 27.44678579 -44.5 25.375 C-43.51257813 24.79758057 -42.52515625 24.22016113 -41.5078125 23.62524414 C-39.41238405 22.39790762 -37.32132577 21.16308387 -35.234375 19.92138672 C-31.96922257 17.98171661 -28.69046251 16.06735371 -25.40625 14.16015625 C-21.30779205 11.7800686 -17.21353693 9.39318367 -13.125 6.99609375 C-11.41694537 5.99691925 -9.70863684 4.99817857 -8 4 C-7.27296875 3.57477051 -6.5459375 3.14954102 -5.796875 2.71142578 C-1.11814993 0 -1.11814993 0 0 0 Z " fill="#FBFBFB" transform="translate(136,139)"/>
<path d="M0 0 C0.87060059 0.01168213 1.74120117 0.02336426 2.63818359 0.03540039 C15.21417611 0.4642602 23.56383728 5.50503799 32.125 14.5625 C34.86186575 17.75466689 36.96360505 20.85138791 38.8125 24.625 C39.22886719 25.46160156 39.64523438 26.29820313 40.07421875 27.16015625 C42.20717507 32.03661772 42.24799286 36.54496753 42.1875 41.8125 C42.18298828 42.55757812 42.17847656 43.30265625 42.17382812 44.0703125 C42.16209246 45.9010764 42.1441585 47.73179873 42.125 49.5625 C38.37645849 48.16041275 35.00643494 46.44574944 31.546875 44.4375 C29.94042114 43.50756226 29.94042114 43.50756226 28.30151367 42.55883789 C26.6053894 41.57065063 26.6053894 41.57065063 24.875 40.5625 C23.70504586 39.88561997 22.53487845 39.20910845 21.36450195 38.53295898 C16.1515093 35.51649387 10.95498199 32.4769875 5.80859375 29.34765625 C5.03741211 28.88166016 4.26623047 28.41566406 3.47167969 27.93554688 C2.07184928 27.08589857 0.67754914 26.22704432 -0.70996094 25.35742188 C-4.33239352 23.16166462 -6.65792615 22.13650891 -10.875 22.5625 C-13.30369057 23.58226342 -13.30369057 23.58226342 -15.69921875 25.09765625 C-16.63330566 25.65283936 -17.56739258 26.20802246 -18.52978516 26.7800293 C-19.53058105 27.38886963 -20.53137695 27.99770996 -21.5625 28.625 C-23.70915063 29.90445954 -25.85630473 31.18307468 -28.00390625 32.4609375 C-29.12297363 33.13092773 -30.24204102 33.80091797 -31.39501953 34.49121094 C-37.22711524 37.97296693 -43.11579558 41.35736948 -49 44.75 C-50.09530029 45.38494385 -51.19060059 46.0198877 -52.3190918 46.67407227 C-53.35074463 47.27018311 -54.38239746 47.86629395 -55.4453125 48.48046875 C-56.35039551 49.00406982 -57.25547852 49.5276709 -58.18798828 50.06713867 C-61.03693847 51.65262113 -63.95880086 53.10440043 -66.875 54.5625 C-66.875 46.9725 -66.875 39.3825 -66.875 31.5625 C-56.19937678 25.39473662 -56.19937678 25.39473662 -51.62890625 22.76245117 C-50.42578116 22.06949886 -49.22265616 21.37654639 -48.01953125 20.68359375 C-47.11480576 20.16257332 -47.11480576 20.16257332 -46.19180298 19.63102722 C-42.39601829 17.4435972 -38.60806941 15.24319354 -34.82421875 13.03515625 C-33.00786763 11.98167577 -31.19146452 10.92828493 -29.375 9.875 C-28.55942627 9.39514648 -27.74385254 8.91529297 -26.90356445 8.42089844 C-18.10817005 3.34116669 -10.29217404 -0.18641592 0 0 Z " fill="#FCFCFC" transform="translate(153.875,32.4375)"/>
<path d="M0 0 C2.38769531 1.19921875 2.38769531 1.19921875 4.828125 2.6875 C5.70984375 3.22117187 6.5915625 3.75484375 7.5 4.3046875 C8.86125 5.14386719 8.86125 5.14386719 10.25 6 C11.17296875 6.55945313 12.0959375 7.11890625 13.046875 7.6953125 C19.81731673 11.81731673 19.81731673 11.81731673 21 13 C21.450758 17.55179717 21.51169678 22.11684802 21.625 26.6875 C21.73134766 28.60852539 21.73134766 28.60852539 21.83984375 30.56835938 C22.02257436 39.81549018 22.02257436 39.81549018 19.20703125 43.0769043 C16.8740873 44.64404051 14.55391888 45.8330571 12 47 C10.73434503 47.77352545 9.47804347 48.56269232 8.234375 49.37109375 C7.07476121 50.06299665 5.91333372 50.75187006 4.75 51.4375 C4.16476563 51.80037109 3.57953125 52.16324219 2.9765625 52.53710938 C0.39256408 54.05216674 -1.36692006 55.06381023 -4.40039062 54.75805664 C-7.20714125 53.93959677 -9.33417568 52.83341988 -11.828125 51.3125 C-12.70984375 50.77882812 -13.5915625 50.24515625 -14.5 49.6953125 C-15.4075 49.13585937 -16.315 48.57640625 -17.25 48 C-18.17296875 47.44054687 -19.0959375 46.88109375 -20.046875 46.3046875 C-26.81731673 42.18268327 -26.81731673 42.18268327 -28 41 C-28.08775605 38.85441173 -28.10695219 36.70595579 -28.09765625 34.55859375 C-28.09443359 33.25341797 -28.09121094 31.94824219 -28.08789062 30.60351562 C-28.07953401 29.2148431 -28.07106905 27.82617123 -28.0625 26.4375 C-28.05748666 25.04492344 -28.05292347 23.65234519 -28.04882812 22.25976562 C-28.03699434 18.8398013 -28.0205088 15.41992156 -28 12 C-27.48091064 11.71278076 -26.96182129 11.42556152 -26.42700195 11.12963867 C-24.05499613 9.8165026 -21.68374289 8.50201321 -19.3125 7.1875 C-18.49587891 6.73568359 -17.67925781 6.28386719 -16.83789062 5.81835938 C-16.04189453 5.37685547 -15.24589844 4.93535156 -14.42578125 4.48046875 C-13.2648999 3.84117432 -13.2648999 3.84117432 -12.08056641 3.18896484 C-9.8451498 1.94774421 -9.8451498 1.94774421 -7.23046875 0.11328125 C-4.30923446 -1.3447779 -3.113047 -0.86240394 0 0 Z " fill="#FDFDFD" transform="translate(115,86)"/>
</svg>
