<?xml version="1.0" encoding="UTF-8"?>
<svg version="1.1" xmlns="http://www.w3.org/2000/svg" width="250" height="100">
<path d="M0 0 C32.67 0 65.34 0 99 0 C99 33 99 66 99 100 C66.33 100 33.66 100 0 100 C0 67 0 34 0 0 Z " fill="#212121" transform="translate(75,0)"/>
<path d="M0 0 C3.81354972 5.72032458 6.27572696 9.73550808 6 16.8125 C5.73847982 24.46438673 7.52640759 30.94055676 12.375 36.9375 C19.77050734 42.74825576 24.5129639 44.1170988 33.7734375 44.42578125 C37.58544728 45.10418977 39.12668443 46.47929696 42 49 C44.17889474 50.06930842 44.17889474 50.06930842 46.3125 50.75 C48.1378125 51.36875 48.1378125 51.36875 50 52 C50 52.33 50 52.66 50 53 C33.5 53 17 53 0 53 C0 35.51 0 18.02 0 0 Z " fill="#FAFAFA" transform="translate(75,47)"/>
<path d="M0 0 C16.5 0 33 0 50 0 C50 16.83 50 33.66 50 51 C43.61986301 42.49315068 43.61986301 42.49315068 44.0625 35.25 C44.22889317 27.30472632 42.71545236 22.30257719 37.6875 16.1875 C31.90868908 11.48381669 26.61396372 9.0143251 19.125 8.6875 C14.03648172 8.30311553 11.76120398 7.5522482 8 4 C5.37489997 2.81895311 2.73122368 1.92583854 0 1 C0 0.67 0 0.34 0 0 Z " fill="#FAFAFA" transform="translate(124,0)"/>
<path d="M0 0 C0.33 0 0.66 0 1 0 C1 12.21 1 24.42 1 37 C-11.87 37 -24.74 37 -38 37 C-35.5474043 35.3649362 -33.16995376 34.03739596 -30.5625 32.6875 C-25.62955567 29.95319374 -22.8829144 27.27698976 -20.8125 21.9375 C-18.4769684 18.1523281 -16.22654028 17.57759781 -12.2109375 15.97265625 C-5.40533152 12.97867058 -2.91014738 6.37755703 0 0 Z " fill="#FAFAFA" transform="translate(173,63)"/>
<path d="M0 0 C12.87 0 25.74 0 39 0 C37.02 0.99 37.02 0.99 35 2 C29.51604124 4.9513669 25.90484354 7.6186498 22.9375 13.1875 C21.01505175 16.75547874 19.89733361 18.53057931 16 19.8125 C15.32324219 20.00328125 14.64648438 20.1940625 13.94921875 20.390625 C9.40904726 21.80999725 6.8257644 24.57942378 4.51953125 28.546875 C3.27915152 31.00678774 2.10692534 33.47758164 1 36 C0.67 36 0.34 36 0 36 C0 24.12 0 12.24 0 0 Z " fill="#FCFCFC" transform="translate(75,0)"/>
<path d="M0 0 C2.3671875 1.3984375 2.3671875 1.3984375 4 3 C4 3.66 4 4.32 4 5 C2.27172852 6.22094727 2.27172852 6.22094727 -0.12109375 7.56640625 C-1.40016602 8.2944043 -1.40016602 8.2944043 -2.70507812 9.03710938 C-3.60677734 9.54048828 -4.50847656 10.04386719 -5.4375 10.5625 C-7.20770579 11.56260908 -8.97727197 12.56385141 -10.74609375 13.56640625 C-11.53685303 14.00927979 -12.3276123 14.45215332 -13.14233398 14.90844727 C-14.94929177 15.86548387 -14.94929177 15.86548387 -16 17 C-16.15858842 19.14386657 -16.25129298 21.29266838 -16.31640625 23.44140625 C-16.35830078 24.74658203 -16.40019531 26.05175781 -16.44335938 27.39648438 C-16.48317608 28.7851533 -16.52288825 30.17382522 -16.5625 31.5625 C-16.60567989 32.95509183 -16.649294 34.34767028 -16.69335938 35.74023438 C-16.79985876 39.16004801 -16.90186923 42.57993763 -17 46 C-20.0831351 44.80100302 -23.06279492 43.52299523 -26 42 C-26.08777806 37.83346814 -26.14065272 33.66717724 -26.1875 29.5 C-26.21263672 28.32695313 -26.23777344 27.15390625 -26.26367188 25.9453125 C-26.33174912 17.86681289 -25.99553151 11.64321399 -20.6875 5.1875 C-14.23875686 -0.06147697 -8.21513203 -1.16705218 0 0 Z " fill="#F4F4F4" transform="translate(126,7)"/>
<path d="M0 0 C4.14040276 1.96661283 8.09743978 4.20094205 12.07617188 6.47363281 C13.33880859 7.17166016 13.33880859 7.17166016 14.62695312 7.88378906 C20.5565669 11.27347379 25.32669531 14.47520311 27.57617188 21.22363281 C28.29533859 27.36841167 28.6195772 32.64544752 24.82617188 37.78613281 C22.6635841 40.32553513 20.35120367 42.36797131 17.57617188 44.22363281 C16.91617188 44.22363281 16.25617188 44.22363281 15.57617188 44.22363281 C15.6715625 43.53962402 15.76695312 42.85561523 15.86523438 42.15087891 C16.75514476 34.45858669 17.47794837 26.54749179 14.57617188 19.22363281 C8.18597007 12.4204897 -0.89736621 8.68694288 -9.42382812 5.22363281 C-8.42382812 2.22363281 -8.42382812 2.22363281 -5.67382812 0.41113281 C-2.42382812 -0.77636719 -2.42382812 -0.77636719 0 0 Z " fill="#F6F6F6" transform="translate(139.423828125,30.7763671875)"/>
<path d="M0 0 C-0.04825928 0.71019287 -0.09651855 1.42038574 -0.14624023 2.15209961 C-1.36612958 15.0861791 -1.36612958 15.0861791 2.37451172 26.98681641 C5.82765617 30.00942363 9.84123469 31.71665048 14.11767578 33.28271484 C16.72031786 34.27448688 19.04682022 35.64339248 21.4375 37.0625 C22.62345271 37.71117027 23.81022817 38.35836153 25 39 C25 39.66 25 40.32 25 41 C22.25 43.1875 22.25 43.1875 19 45 C14.26410094 44.37893749 10.16998239 41.53303439 6.0625 39.25 C5.26392578 38.81945313 4.46535156 38.38890625 3.64257812 37.9453125 C-0.90646533 35.42769773 -4.50160776 32.92582738 -8 29 C-8.763125 28.154375 -9.52625 27.30875 -10.3125 26.4375 C-12.83574007 21.29756652 -12.85415719 16.61829258 -12 11 C-10.29429283 6.61689182 -8.072231 3.79793935 -4.3125 1 C-2 0 -2 0 0 0 Z " fill="#F6F6F6" transform="translate(94,25)"/>
<path d="M0 0 C4.03479326 2.68986217 7.90290324 6.15156029 9.4765625 10.86328125 C9.97861727 13.86977204 9.87095989 16.83508594 9.8125 19.875 C6.70658677 18.79597832 4.01127837 17.43900378 1.25390625 15.67578125 C0.30354492 15.06959961 0.30354492 15.06959961 -0.66601562 14.45117188 C-1.97462351 13.60703498 -3.27675681 12.75277755 -4.57226562 11.88867188 C-5.20712891 11.48841797 -5.84199219 11.08816406 -6.49609375 10.67578125 C-7.34385376 10.12144409 -7.34385376 10.12144409 -8.20874023 9.5559082 C-11.98975434 8.25482883 -15.27555275 9.44766157 -18.78051758 11.09008789 C-20.04351685 11.83633423 -20.04351685 11.83633423 -21.33203125 12.59765625 C-22.25564453 13.13583984 -23.17925781 13.67402344 -24.13085938 14.22851562 C-25.07767578 14.79248047 -26.02449219 15.35644531 -27 15.9375 C-28.90139657 17.05499858 -30.8036902 18.17097277 -32.70703125 19.28515625 C-33.54339111 19.78152588 -34.37975098 20.27789551 -35.24145508 20.78930664 C-37.1875 21.875 -37.1875 21.875 -38.1875 21.875 C-38.1875 18.575 -38.1875 15.275 -38.1875 11.875 C-34.79473694 9.91131122 -31.39777282 7.95500556 -28 6 C-26.56043945 5.16662109 -26.56043945 5.16662109 -25.09179688 4.31640625 C-23.69477539 3.51396484 -23.69477539 3.51396484 -22.26953125 2.6953125 C-21.41593018 2.20305176 -20.5623291 1.71079102 -19.68286133 1.20361328 C-12.60030317 -2.567376 -7.53843018 -2.66062242 0 0 Z " fill="#F6F6F6" transform="translate(152.1875,16.125)"/>
<path d="M0 0 C0 3.3 0 6.6 0 10 C-3.43498427 11.98355733 -6.87340233 13.96108444 -10.3125 15.9375 C-11.77719727 16.78344727 -11.77719727 16.78344727 -13.27148438 17.64648438 C-14.20927734 18.18466797 -15.14707031 18.72285156 -16.11328125 19.27734375 C-17.40939331 20.02359009 -17.40939331 20.02359009 -18.73168945 20.78491211 C-24.23737755 23.7341974 -29.89629416 23.58207526 -36 23 C-41.20102517 20.49236287 -44.0291679 16.85770654 -47.25 12.1875 C-48.41843722 8.77955812 -48.1196222 5.58866602 -48 2 C-44.89408677 3.07902168 -42.19877837 4.43599622 -39.44140625 6.19921875 C-38.80783203 6.60333984 -38.17425781 7.00746094 -37.52148438 7.42382812 C-36.21287649 8.26796502 -34.91074319 9.12222245 -33.61523438 9.98632812 C-32.98037109 10.38658203 -32.34550781 10.78683594 -31.69140625 11.19921875 C-30.84364624 11.75355591 -30.84364624 11.75355591 -29.97875977 12.3190918 C-26.19774566 13.62017117 -22.91194725 12.42733843 -19.40698242 10.78491211 C-18.56498291 10.28741455 -17.7229834 9.78991699 -16.85546875 9.27734375 C-15.93185547 8.73916016 -15.00824219 8.20097656 -14.05664062 7.64648438 C-12.63641602 6.80053711 -12.63641602 6.80053711 -11.1875 5.9375 C-9.28610343 4.82000142 -7.3838098 3.70402723 -5.48046875 2.58984375 C-4.64410889 2.09347412 -3.80774902 1.59710449 -2.94604492 1.08569336 C-1 0 -1 0 0 0 Z " fill="#F7F7F7" transform="translate(135,62)"/>
<path d="M0 0 C2.9719385 1.12451727 5.33440687 2.22293791 8 4 C8.40405273 6.88574219 8.40405273 6.88574219 8.43359375 10.546875 C8.4388356 11.19569641 8.44407745 11.84451782 8.44947815 12.51300049 C8.45590581 13.88820974 8.45455163 15.26347391 8.44604492 16.63867188 C8.43758546 18.72888284 8.4661941 20.81631295 8.49804688 22.90625 C8.49966047 24.24479085 8.49907833 25.5833365 8.49609375 26.921875 C8.49887329 28.74090332 8.49887329 28.74090332 8.50170898 30.59667969 C7.51002436 37.32372768 3.18430216 41.13934945 -2 45 C-5.16009533 46.05336511 -7.5553136 46.20032888 -10.875 46.25 C-12.41800781 46.28867188 -12.41800781 46.28867188 -13.9921875 46.328125 C-17.40531414 45.95578391 -19.28062465 45.06712665 -22 43 C-22 42.34 -22 41.68 -22 41 C-21.09906616 40.50802124 -21.09906616 40.50802124 -20.17993164 40.00610352 C-17.47313901 38.52669094 -14.76780439 37.04463214 -12.0625 35.5625 C-11.11697266 35.04623047 -10.17144531 34.52996094 -9.19726562 33.99804688 C-7.84858398 33.25844727 -7.84858398 33.25844727 -6.47265625 32.50390625 C-5.64000244 32.04830322 -4.80734863 31.5927002 -3.94946289 31.12329102 C-2.06093156 30.14748115 -2.06093156 30.14748115 -1 29 C-0.84141158 26.85613343 -0.74870702 24.70733162 -0.68359375 22.55859375 C-0.64169922 21.25341797 -0.59980469 19.94824219 -0.55664062 18.60351562 C-0.51682392 17.2148467 -0.47711175 15.82617478 -0.4375 14.4375 C-0.39432011 13.04490817 -0.350706 11.65232972 -0.30664062 10.25976562 C-0.20014124 6.83995199 -0.09813077 3.42006237 0 0 Z " fill="#F8F8F8" transform="translate(140,47)"/>
<path d="M0 0 C2.44967679 1.17982499 4.67088852 2.58426557 7 4 C7 8.62 7 13.24 7 18 C-1.27225268 23.06212477 -1.27225268 23.06212477 -4.5625 22.78125 C-8.08157592 21.65334105 -10.84534244 19.91753695 -14 18 C-14 13.38 -14 8.76 -14 4 C-4.89800944 -1.56987482 -4.89800944 -1.56987482 0 0 Z " fill="#FAFAFA" transform="translate(128,39)"/>
</svg>
